<?xml version="1.0" encoding="utf-8"?>
<!-- Generator: Adobe Illustrator 17.0.0, SVG Export Plug-In . SVG Version: 6.00 Build 0)  -->
<!DOCTYPE svg PUBLIC "-//W3C//DTD SVG 1.1//EN" "http://www.w3.org/Graphics/SVG/1.1/DTD/svg11.dtd">
<svg version="1.1" id="a8da25f4-889f-4ee6-ae6a-a6a994838cbb"
	 xmlns="http://www.w3.org/2000/svg" xmlns:xlink="http://www.w3.org/1999/xlink" x="0px" y="0px" width="234px" height="146px"
	 viewBox="636.005 793.483 234 146" enable-background="new 636.005 793.483 234 146" xml:space="preserve">
<g>
	<path opacity="0.1" fill="#FF0000" enable-background="new    " d="M863.737,929.707c-0.22,0.161-0.445,0.315-0.673,0.468
		c-0.84,0.563-1.718,1.07-2.626,1.515c-4.772,2.38-10.65,3.541-16.378,4.33c-12.845,1.774-25.96,2.117-39.02,2.455
		c-35.284,0.917-70.661,1.831-105.855-0.281c-13.904-0.834-28.12-2.237-40.722-6.509c-1.805-0.612-3.576-1.286-5.313-2.022
		c-3.511-1.495-6.883-3.311-9.688-5.476c-2.644-2.034-4.772-4.373-6.049-7.029c-2.665-5.536-1.255-11.754,1.786-17.179
		c1.271-2.201,2.698-4.309,4.271-6.305c2.343-3.055,4.928-6.015,7.292-9.065c8.404-10.866,13.888-24.589,6.13-35.719
		c-2.237-3.197-5.453-6.004-7.269-9.342c-2.321-4.271-2.14-9.013-1.401-13.628c0.094-0.582,0.203-1.159,0.303-1.737
		c1.267-6.828,3.627-14.187,10.931-18.45c7.587-4.43,18.357-4.206,27.776-2.622c14.645,2.465,28.154,7.613,41.796,12.263
		s27.931,8.897,42.933,9.356c13.245,0.407,28.698-2.618,37.488-10.467c8.543-7.623,24.591-8.203,36.164-3.598
		c7.933,3.161,13.862,8.854,16.361,15.255c0.505,1.282,0.87,2.614,1.088,3.974c0.203,1.239,0.271,2.495,0.203,3.749
		c-0.035,0.61-0.102,1.231-0.203,1.831c-1.932,12.637-15.847,22.604-24.304,33.892c-4.133,5.514-7.052,12.137-4.21,18.082
		c4.334,9.059,19.408,12.279,28.515,19.024c1.701,1.214,3.21,2.677,4.475,4.341C871.942,916.818,870.313,924.921,863.737,929.707z"
		/>
	<ellipse opacity="0.1" fill="#FF0000" enable-background="new    " cx="745.371" cy="934.426" rx="54.844" ry="1.863"/>
	<g id="_x35_5bfdb31-36b5-4718-97dd-773b4157bdc7">
		<path fill="none" stroke="#535461" stroke-width="0.4068" stroke-miterlimit="10" d="M788.945,933.186
			c0,0,11.797-14.944,10.884-29.798c-0.384-6.236,1.151-12.444,4.583-17.665c1.632-2.474,3.488-4.792,5.545-6.926"/>
		<path fill="#FF0000" d="M809.433,869.43c-0.834,2.079,0.506,9.613,0.506,9.613s6.181-4.513,7.015-6.59
			c0.835-2.078-0.173-4.439-2.252-5.274s-4.44,0.173-5.274,2.252l0,0L809.433,869.43z"/>
		<path fill="#FF0000" d="M798.594,878.439c0.429,2.197,5.65,7.792,5.65,7.792s2.736-7.147,2.307-9.344
			c-0.455-2.192-2.601-3.6-4.793-3.146C799.603,874.189,798.199,876.274,798.594,878.439L798.594,878.439z"/>
		<path fill="#FF0000" d="M790.969,898.209c1.479,1.68,8.809,3.865,8.809,3.865s-1.247-7.55-2.726-9.23
			c-1.479-1.68-4.04-1.843-5.72-0.364s-1.843,4.04-0.364,5.72l0,0V898.209z"/>
		<path fill="#FF0000" d="M788.565,914.467c1.174,1.906,8.03,5.309,8.03,5.309s0.047-7.654-1.127-9.56
			c-1.16-1.915-3.653-2.527-5.568-1.367c-1.915,1.16-2.527,3.653-1.367,5.568C788.544,914.433,788.554,914.45,788.565,914.467z"/>
		<path fill="#FF0000" d="M811.99,889.807c-2.073,0.848-9.615-0.441-9.615-0.441s4.475-6.212,6.541-7.06
			c2.084-0.817,4.437,0.211,5.253,2.295C814.969,886.64,814.004,888.945,811.99,889.807z"/>
		<path fill="#FF0000" d="M808.939,908.784c-2.237,0.191-9.043-3.297-9.043-3.297s6.124-4.589,8.354-4.78
			c2.227-0.228,4.217,1.393,4.445,3.621s-1.393,4.217-3.621,4.445C809.029,908.777,808.984,908.781,808.939,908.784z"/>
		<path fill="#FF0000" d="M803.431,926.823c-2.166,0.563-9.468-1.723-9.468-1.723s5.26-5.557,7.426-6.122
			c2.182-0.503,4.358,0.858,4.861,3.04c0.484,2.098-0.758,4.208-2.827,4.805H803.431z"/>
		<path opacity="0.25" enable-background="new    " d="M809.433,869.43c-0.834,2.079,0.506,9.613,0.506,9.613
			s6.181-4.513,7.015-6.59c0.835-2.078-0.173-4.439-2.252-5.274s-4.44,0.173-5.274,2.252l0,0L809.433,869.43z"/>
		<path opacity="0.25" enable-background="new    " d="M798.594,878.439c0.429,2.197,5.65,7.792,5.65,7.792s2.736-7.147,2.307-9.344
			c-0.455-2.192-2.601-3.6-4.793-3.146C799.603,874.189,798.199,876.274,798.594,878.439L798.594,878.439z"/>
		<path opacity="0.25" enable-background="new    " d="M790.969,898.209c1.479,1.68,8.809,3.865,8.809,3.865s-1.247-7.55-2.726-9.23
			c-1.479-1.68-4.04-1.843-5.72-0.364s-1.843,4.04-0.364,5.72l0,0V898.209z"/>
		<path opacity="0.25" enable-background="new    " d="M788.565,914.467c1.174,1.906,8.03,5.309,8.03,5.309s0.047-7.654-1.127-9.56
			c-1.16-1.915-3.653-2.527-5.568-1.367c-1.915,1.16-2.527,3.653-1.367,5.568C788.544,914.433,788.554,914.45,788.565,914.467z"/>
		<path opacity="0.25" enable-background="new    " d="M811.99,889.807c-2.073,0.848-9.615-0.441-9.615-0.441
			s4.475-6.212,6.541-7.06c2.084-0.817,4.437,0.211,5.253,2.295C814.969,886.64,814.004,888.945,811.99,889.807z"/>
		<path opacity="0.25" enable-background="new    " d="M808.939,908.784c-2.237,0.191-9.043-3.297-9.043-3.297
			s6.124-4.589,8.354-4.78c2.227-0.228,4.217,1.393,4.445,3.621s-1.393,4.217-3.621,4.445
			C809.029,908.777,808.984,908.781,808.939,908.784z"/>
		<path opacity="0.25" enable-background="new    " d="M803.431,926.823c-2.166,0.563-9.468-1.723-9.468-1.723
			s5.26-5.557,7.426-6.122c2.182-0.503,4.358,0.858,4.861,3.04c0.484,2.098-0.758,4.208-2.827,4.805H803.431z"/>
		<path fill="none" stroke="#535461" stroke-width="0.4068" stroke-miterlimit="10" d="M789.047,932.561
			c0,0,16.841-8.878,22.024-22.83c2.176-5.858,6.102-10.91,11.348-14.293c2.496-1.6,5.132-2.968,7.878-4.086"/>
		<path fill="#FF0000" d="M833.611,882.576c-1.603,1.56-3.431,8.992-3.431,8.992s7.479-1.627,9.084-3.181
			c1.584-1.583,1.584-4.149,0.002-5.733C837.713,881.101,835.206,881.066,833.611,882.576z"/>
		<path fill="#FF0000" d="M820.053,886.422c-0.498,2.182,2.008,9.413,2.008,9.413s5.396-5.425,5.899-7.607
			c0.543-2.172-0.778-4.373-2.95-4.916s-4.373,0.778-4.916,2.95c-0.013,0.053-0.025,0.106-0.036,0.159H820.053z"/>
		<path fill="#FF0000" d="M805.074,901.407c0.671,2.136,6.484,7.119,6.484,7.119s1.92-7.408,1.249-9.543
			c-0.625-2.15-2.875-3.385-5.025-2.76c-2.15,0.626-3.385,2.875-2.76,5.025c0.017,0.059,0.036,0.117,0.055,0.176L805.074,901.407z"
			/>
		<path fill="#FF0000" d="M796.284,915.297c0.301,2.217,5.189,8.105,5.189,8.105s3.145-6.977,2.848-9.196
			c-0.301-2.219-2.344-3.773-4.562-3.472c-2.219,0.301-3.773,2.344-3.472,4.562H796.284z"/>
		<path fill="#FF0000" d="M827.682,902.238c-2.237-0.063-8.612-4.3-8.612-4.3s6.604-3.865,8.842-3.804
			c2.237,0.095,3.973,1.985,3.878,4.222C831.697,900.549,829.876,902.27,827.682,902.238z"/>
		<path fill="#FF0000" d="M817.203,918.352c-2.115-0.73-6.93-6.678-6.93-6.678s7.457-1.715,9.574-0.984
			c2.1,0.777,3.171,3.11,2.394,5.209C821.488,917.932,819.268,919.013,817.203,918.352L817.203,918.352z"/>
		<path fill="#FF0000" d="M804.871,932.612c-2.209-0.362-7.961-5.41-7.961-5.41s7.062-2.951,9.271-2.589
			c2.203,0.401,3.663,2.512,3.262,4.714C809.052,931.474,807.031,932.926,804.871,932.612z"/>
	</g>
	<polygon fill="#464353" points="790.523,933.802 788.719,933.802 775.523,865.677 773.83,933.802 771.914,933.802 769.771,865.791 
		756.912,933.802 754.882,933.802 763.622,863.782 763.907,861.506 781.051,859.588 781.584,863.782 	"/>
	<rect x="743.192" y="845.932" fill="#464353" width="10.912" height="6.767"/>
	<path fill="#464353" d="M806.508,842.972l6.598-2.665h1.446c0.439,0,0.795,0.356,0.795,0.795v18.583
		c0,0.439-0.356,0.795-0.795,0.795h-1.446l-6.598-2.748V842.972z"/>
	<rect x="793.017" y="843.818" fill="#464353" width="13.491" height="13.068"/>
	<rect x="769.598" y="819.272" fill="#514E7F" width="8.685" height="1.578"/>
	<rect x="759.688" y="821.316" fill="#514E7F" width="24.447" height="17.848"/>
	<rect x="759.688" y="837.051" opacity="0.1" enable-background="new    " width="24.447" height="2.115"/>
	<rect x="792.807" y="843.818" opacity="0.1" enable-background="new    " width="0.547" height="13.068"/>
	<rect x="750.383" y="845.932" opacity="0.1" enable-background="new    " width="3.722" height="6.767"/>
	<polygon opacity="0.1" enable-background="new    " points="781.584,863.782 763.622,863.782 763.907,861.506 781.051,859.588 	"/>
	<path fill="#514E7F" d="M752.897,837.389h37.942c1.202,0,2.176,0.974,2.176,2.176v21.701c0,1.202-0.974,2.176-2.176,2.176h-37.942
		c-1.202,0-2.176-0.974-2.176-2.176v-21.701C750.72,838.363,751.695,837.389,752.897,837.389z"/>
	<path fill="#514E7F" d="M806.38,842.972h0.128l0,0v14.761l0,0h-0.128c-0.583,0-1.056-0.473-1.056-1.056l0,0v-12.649
		C805.325,843.445,805.797,842.972,806.38,842.972z"/>
	<path fill="#514E7F" d="M813.107,840.314h1.369c0.482,0,0.873,0.391,0.873,0.873v18.432c0,0.482-0.391,0.873-0.873,0.873h-1.369
		l0,0V840.314L813.107,840.314z"/>
	<rect x="743.192" y="845.932" opacity="0.1" enable-background="new    " width="1.947" height="6.767"/>
	<path fill="#514E7F" d="M742.458,843.818h0.877c0.809,0,1.464,0.656,1.464,1.464v8.575c0,0.809-0.656,1.464-1.464,1.464h-0.877
		c-0.809,0-1.464-0.656-1.464-1.464v-8.575C740.994,844.474,741.649,843.818,742.458,843.818z"/>
	<circle fill="#464353" cx="759.688" cy="821.316" r="12.182"/>
	<circle fill="#FF0000" cx="759.688" cy="821.316" r="9.137"/>
	<circle fill="#464353" cx="782.273" cy="821.57" r="8.882"/>
	<circle fill="#FF0000" cx="782.273" cy="821.57" r="6.661"/>
	<circle fill="#FF0000" cx="781.584" cy="841.266" r="1.17"/>
	<circle opacity="0.5" fill="#FF0000" enable-background="new    " cx="785.304" cy="841.266" r="1.17"/>
	
		<linearGradient id="SVGID_1_" gradientUnits="userSpaceOnUse" x1="1048.7837" y1="-667.5911" x2="1048.7837" y2="-536.6043" gradientTransform="matrix(1 0 0 -1 -315.78 267.5703)">
		<stop  offset="0" style="stop-color:#808080;stop-opacity:0.25"/>
		<stop  offset="0.54" style="stop-color:#808080;stop-opacity:0.12"/>
		<stop  offset="1" style="stop-color:#808080;stop-opacity:0.1"/>
	</linearGradient>
	<path fill="url(#SVGID_1_)" d="M770.584,845.301l-0.083-0.165c0.516,0.171,1.011,0.399,1.477,0.679
		c-0.203-1.768-6.983-6.73-8.203-6.73c-1.22,0-2.577-2.107-2.577-2.107s-3.525-0.543-4.068-1.119s-4.204-0.24-5.085-0.037
		c-0.881,0.203-2.237-0.543-2.237-0.543s-0.747-1.22-1.694-1.22c-0.948,0-1.963-1.359-1.963-1.359s-0.885-0.814-1.698-0.952
		s-1.831-1.017-2.307-1.698s-2.848-1.017-4.202-0.814c-1.355,0.203-5.018-0.277-5.018-0.277c1.491-0.679,1.851-2.311,1.851-2.311
		c-1.334-0.069-4.841-3.014-4.841-3.014s0.144,0.952,0.311,2.28l-0.226-0.291l-0.031,0.024c-0.072-0.948-0.082-1.899-0.03-2.848
		c0-0.073,0.012-0.146,0.016-0.222c1.77-1.551,2.534-3.954,1.985-6.242c-0.037-0.155-0.079-0.305-0.128-0.454
		c0.26,0.108,0.534,0.177,0.814,0.203h0.144c0.34,0.002,0.665-0.141,0.893-0.395l0,0c0.038-0.048,0.072-0.1,0.1-0.155
		c0.007-0.01,0.013-0.021,0.018-0.033c0.024-0.05,0.045-0.102,0.061-0.155c0.006-0.019,0.01-0.038,0.014-0.057
		c0.01-0.042,0.018-0.084,0.024-0.126c0-0.035,0-0.071,0-0.108c0-0.037,0-0.053,0-0.079c-0.008-0.313-0.077-0.621-0.203-0.907
		c-0.214-0.525-0.521-1.043-0.498-1.611c0-0.047,0.01-0.092,0.016-0.136c0.057-0.445,0.291-0.858,0.431-1.288v-0.018
		c0.02-0.063,0.037-0.126,0.051-0.189c0.007-0.019,0.012-0.038,0.016-0.057c0.015-0.074,0.025-0.15,0.031-0.226c0,0,0-0.01,0-0.016
		c0.053-0.85-0.633-1.593-1.41-1.936c-0.696-0.309-1.491-0.393-2.128-0.814c-0.726-0.478-1.125-1.306-1.662-1.991
		c-0.781-0.997-2.003-1.741-3.254-1.599c-0.771,0.087-1.471,0.492-2.237,0.649c-1.165,0.242-2.398-0.11-3.557,0.161
		c-0.281,0.047-0.538,0.191-0.724,0.407c-0.078,0.109-0.128,0.235-0.146,0.368l0,0c-0.016,0.123-0.016,0.247,0,0.37v0.01
		c0.013,0.117,0.034,0.233,0.063,0.348l0.018,0.071c0,0.024,0.01,0.047,0.016,0.071s0.026,0.096,0.039,0.142
		c0.022,0.079,0.041,0.159,0.061,0.24v0.029c0.018,0.083,0.037,0.167,0.051,0.252l0,0c0.033,0.176,0.055,0.354,0.065,0.533l0,0
		c0.048,0.503-0.061,1.009-0.311,1.448c-0.508,0.814-1.589,1.174-2.058,2.022c-0.111,0.205-0.18,0.429-0.203,0.661l0,0
		c-0.008,0.077-0.012,0.154-0.01,0.232v0.031c0,0.067,0,0.134,0.018,0.203c-0.001,0.016-0.001,0.033,0,0.049
		c0.01,0.06,0.024,0.12,0.041,0.179c0,0.02,0.01,0.039,0.016,0.057c0.022,0.07,0.05,0.138,0.081,0.203l0,0
		c0.218,0.454,0.628,0.828,0.714,1.32l0,0c0,0.014,0,0.029,0.01,0.045c0.047,0.37-0.106,0.732-0.185,1.096
		c-0.01,0.044-0.019,0.089-0.024,0.134l0,0c0,0.014,0,0.028,0,0.043c0,0.014,0,0.061,0,0.094c0,0.033,0,0.035,0,0.053
		s0,0.055,0,0.081c-0.001,0.019-0.001,0.038,0,0.057c0,0.026,0,0.053,0,0.077s0,0.037,0,0.055s0.012,0.051,0.02,0.075l0.014,0.051
		c0.01,0.024,0.021,0.048,0.033,0.071l0.022,0.045c0.015,0.025,0.031,0.048,0.049,0.071c0.007,0.011,0.016,0.022,0.024,0.033
		c0.028,0.033,0.059,0.062,0.094,0.087c0.281,0.203,0.718,0.151,0.948,0.407c0.026,0.031,0.048,0.065,0.065,0.102l0.012,0.024
		c0.017,0.036,0.03,0.073,0.039,0.112l0,0c0.032,0.153,0.032,0.311,0,0.464c-0.081,0.407-0.254,0.777-0.346,1.176
		c-0.018,0.081-0.031,0.165-0.041,0.248l0,0c0,0.039,0,0.075-0.01,0.112v0.024c0,0.035,0,0.071,0,0.106c0,0.035,0,0.018,0,0.028
		c0,0.051,0,0.104,0.012,0.155s0,0.049,0.012,0.071l0.012,0.059c0,0.026,0.014,0.053,0.022,0.079l0.018,0.051
		c0.01,0.029,0.024,0.057,0.037,0.085c0.006,0.013,0.013,0.026,0.02,0.039c0.02,0.042,0.045,0.081,0.073,0.118
		c0.246,0.334,0.651,0.445,1.078,0.447c0.242-0.001,0.484-0.029,0.72-0.081c0.053,0.124,0.108,0.248,0.167,0.368
		c0.295,0.594,0.681,1.137,1.145,1.611c0,0.063-0.012,0.124-0.02,0.189c-0.047,0.464-0.104,0.962-0.169,1.464
		c-0.527-0.242-0.934-0.336-1.094-0.161c-0.681,0.749,0,3.332,0,3.332s-3.326,0-4.139,0.746c-0.814,0.747-2.305,0-2.305,0
		s-3.051,0.342-2.848,0.954c0.203,0.612-1.627,0-1.627,0s-1.29,0.136-1.22,1.017s-1.967,1.29-1.696,1.902
		c0.271,0.612-1.22,1.017-1.22,1.017s-1.491-0.067-0.948,0.814l0,0c0,0-0.814,1.904-1.491,2.034s-1.56,1.698-1.56,1.698
		s-2.612,0.476-2.494,1.292c0.118,0.816-4.015,6.651-4.015,6.651s-1.357,2.797-0.407,4.837c0.95,2.04,1.627,3.399,1.831,4.145
		c0.203,0.746,2.669,4.033,2.648,4.646c0,0.191,0.61,1.22,1.442,2.526l-0.244,0.252l-0.535,0.551c0,0-1.696,4.214,0.338,4.418
		c1.719,0.171,2.953,0.295,3.58,0.124c0.102-0.024,0.198-0.066,0.285-0.124l0.024-0.018c0.74,1.092,1.265,1.855,1.265,1.855
		s0.073-0.108,0.203-0.293l0.203,0.291c0,0,0.163-0.232,0.439-0.61c-0.089,1.849-0.102,3.671-0.102,3.671s0.883-0.136,0.476,3.942
		c-0.407,4.078,2.441,7.408,2.441,7.408v6.051l0,0c0,0,0,0.153,0.028,0.407c0.075,0.869,0.323,2.917,1.056,4.271
		c0.95,1.766,0,6.389,0,6.389s-0.063,3.771,0.165,8.474c0,0.128,0.014,0.26,0.02,0.391c-4.113,3.437-8.524,7.994-8.524,7.994
		c0.216,0.06,0.422,0.153,0.61,0.275l-0.246,0.315l-1.121,1.381l0,0l-0.866,1.07l0,0l1.373,4.229l1.499-0.586
		c0,0,0.814,1.41,0.643,2.366c-0.026,0.173-0.096,0.336-0.203,0.474c-0.052,0.069-0.088,0.149-0.106,0.234
		c-0.393,1.532,1.245,8.136,3.842,8.423c0,0,0.881,0.291,1.163-0.502c0.136-0.382,0.134-1.017-0.171-2.048
		c0,0-1.373-1.656-0.484-3.439c0.521-1.043,1.381-2.441,2.003-3.427l0.256-0.407c0.559,0.706,0.903,1.159,0.903,1.159l1.997-2.148
		c0.043,0.092,0.085,0.181,0.13,0.266c0.149,0.299,0.322,0.586,0.517,0.858l1.355,5.372l0.547-0.122
		c-0.012,0.13-0.02,0.268-0.029,0.407c-0.045,0.964,0,2.215,0.445,3.108c0.334,0.683,0.897,1.159,1.816,1.137
		c3.153-0.077,4.068-1.784,4.068-1.784v-4.271l1.084-0.242c0,0-0.079-9.385-0.358-14.618c0-0.116-0.012-0.228-0.018-0.338
		c0-0.016,0-0.033,0-0.047l6.962-7.487l0.535-0.214c4.475-1.768,4.544-6.322,4.544-6.322s0-2.514,0.541-4.621
		c0.541-2.107,0.069-13.052-0.948-15.77c-1.017-2.717-1.357-5.781-1.357-5.781s1.017-1.424,0-2.61
		c-0.287-0.355-0.527-0.746-0.712-1.163l1.324-0.218l0.763-0.126l0.407-0.069c-0.203,1.798-0.238,3.179,0.244,3.509
		c1.493,1.017,6.509-2.38,6.509-2.38c-1.831,0-2.848-13.662-2.475-14.002c0.372-0.34,0.927-7.186,0.441-8.406
		s1.707-6.669,1.707-6.669l0.338-0.5l0,0c0,0,8.002,3.492,8.882,4.161c0.881,0.669,3.661-1.627,4.135-0.738
		c0.474,0.889,3.458,2.213,3.458,2.213s4.408-0.445,4.882,0.643c0.474,1.088,3.323,3.637,3.323,3.637
		c0.002-0.598,0.038-1.194,0.108-1.788c0.059,0.14,0.116,0.283,0.177,0.427c1.351,3.195,3.598,7.241,5.681,5.065
		C773.533,852.178,771.737,847.606,770.584,845.301z M710.278,859.742v0.039l-0.016-0.016L710.278,859.742z M708.7,844.064
		l-0.862,9.094l-1.694,1.755l-0.203,0.216l-1.751-1.906c0,0-0.883-0.407,0-1.155c0.883-0.748-1.491-2.441-1.491-2.441
		s-0.069-1.22,0.814-1.562c0.883-0.342,2.034-2.583,2.034-2.583l3.187-1.627l0,0l0,0L708.7,844.064z M720.042,890.61
		c0.062-0.057,0.13-0.107,0.203-0.148c0.38-0.216,0.624,0.02,0.751,0.435c0.166,0.695,0.116,1.425-0.144,2.091
		c-0.474,1.088,0.679,5.439,0.679,5.439s-1.493,0.677-1.763,1.971c-0.04,0.159-0.109,0.309-0.203,0.443
		c-0.018-0.114-0.035-0.224-0.051-0.33c-0.132-0.814-0.203-1.338-0.203-1.338c-0.243-1.047-0.289-2.13-0.136-3.193
		c0.216-1.308,0.651-3.964,0.814-4.971c0.041-0.244,0.063-0.391,0.065-0.407L720.042,890.61z"/>
	<path fill="#464353" d="M729.495,824.388l0.439-0.293l1.239,2.614l-0.476,0.559h-1.44c0,0,0.051-1.424,0.085-1.475
		C729.378,825.742,729.495,824.388,729.495,824.388z"/>
	<path fill="#3F3D56" d="M720.991,927.989v5.594c0,0-0.915,1.702-4.068,1.78c-0.785,0.046-1.513-0.408-1.816-1.133
		c-0.439-0.891-0.49-2.14-0.445-3.102c0.022-0.481,0.073-0.961,0.153-1.436L720.991,927.989z"/>
	<path opacity="0.1" enable-background="new    " d="M720.991,927.989v1.731l-6.33,1.408c0.022-0.481,0.073-0.961,0.153-1.436
		L720.991,927.989z"/>
	<path fill="#514E7F" d="M722.076,929.073l-7.933,1.763l-1.355-5.358c-0.194-0.272-0.367-0.558-0.517-0.856
		c-0.087-0.171-0.173-0.352-0.254-0.541c-1.477-3.378-2.134-9.472-2.414-14.657c-0.014-0.262-0.028-0.523-0.041-0.779
		c-0.228-4.69-0.165-8.453-0.165-8.453s0.95-4.611,0-6.372c-0.732-1.359-0.98-3.401-1.056-4.271
		c-0.02-0.258-0.029-0.407-0.029-0.407l0.146-0.384l0.598-1.582h6.578l3.824,3.236l0.582,0.492l-0.065,0.407
		c-0.165,1.005-0.6,3.661-0.814,4.959c-0.153,1.061-0.107,2.141,0.136,3.185c0,0,0.079,0.517,0.203,1.336
		c0.031,0.203,0.065,0.419,0.104,0.653c0.486,3.006,1.397,8.496,1.786,9.808c0.108,0.36,0.203,1.263,0.275,2.485
		c0.016,0.244,0.031,0.498,0.045,0.765C721.996,919.712,722.076,929.073,722.076,929.073z"/>
	<path opacity="0.1" enable-background="new    " d="M720.991,933.525v0.057c0,0-0.915,1.702-4.068,1.78
		c-0.785,0.046-1.513-0.408-1.816-1.133C716.521,934.577,718.815,934.801,720.991,933.525z"/>
	<path fill="#A1616A" d="M771.164,855.036c-2.091,2.17-4.328-1.865-5.681-5.052c-0.759-1.794-1.235-3.321-1.235-3.321l5.565-2.355
		c0,0,0.342,0.543,0.771,1.403C771.737,848.008,773.533,852.568,771.164,855.036z"/>
	<path fill="#A1616A" d="M729.965,823.263c-0.089,2.014,0.062,4.031,0.449,6.008c0,0-11.321,1.22-10.304-0.541
		c0.596-1.033,0.982-3.761,1.198-5.846c0.157-1.477,0.226-2.63,0.226-2.63s10.847-4.339,9.22-0.677
		C730.268,820.669,730.043,821.963,729.965,823.263z"/>
	<polygon fill="#464353" points="730.921,852.391 729.4,870.561 736.383,869.41 735.162,854.425 735.569,850.425 	"/>
	<polygon opacity="0.1" enable-background="new    " points="736.383,869.438 733.35,869.939 729.398,870.59 729.677,867.274 
		730.921,852.42 732.506,851.749 733.629,851.275 735.569,850.453 735.162,854.454 	"/>
	<path fill="#3F3D56" d="M706.981,929.154c-0.889,1.78,0.484,3.431,0.484,3.431c0.305,1.031,0.307,1.662,0.171,2.034
		c-0.283,0.791-1.163,0.5-1.163,0.5c-2.77-0.305-4.448-7.778-3.736-8.634c0.712-0.856-0.433-2.823-0.433-2.823l-1.499,0.584
		l-1.373-4.219l0.866-1.068l1.121-1.379l0.759-0.936l7.577,7.906c0,0-0.323,0.486-0.769,1.184
		C708.362,926.713,707.502,928.117,706.981,929.154z"/>
	<path opacity="0.1" enable-background="new    " d="M721.718,914.491l-9.446,10.131c-1.656-3.234-2.368-9.722-2.669-15.2
		c1.759-1.464,3.458-2.726,4.743-3.334c0,0,4.349-3.147,5.266-4.656c0.486,3.006,1.397,8.496,1.786,9.808
		C721.526,911.672,721.632,912.882,721.718,914.491z"/>
	<polygon opacity="0.1" enable-background="new    " points="719.46,890.409 708.46,888.755 709.058,887.173 715.636,887.173 	"/>
	<path opacity="0.1" enable-background="new    " d="M721.681,913.726l-9.655,10.355c-1.485-3.378-2.142-9.472-2.422-14.657
		c-0.014-0.262-0.028-0.523-0.041-0.779c1.776-1.481,3.494-2.754,4.784-3.368c0,0,4.058-2.935,5.162-4.495
		c0.031,0.203,0.065,0.419,0.104,0.653c0.486,3.006,1.397,8.496,1.786,9.808C721.506,911.601,721.596,912.504,721.681,913.726z"/>
	<path opacity="0.1" enable-background="new    " d="M709.754,924.555c0,0-0.323,0.486-0.769,1.184
		c-1.617-2.044-5.451-6.751-7.566-8.154l0.759-0.936L709.754,924.555z"/>
	<path fill="#514E7F" d="M734.279,895.51c-0.541,2.103-0.541,4.611-0.541,4.611s-0.069,4.542-4.544,6.305l-0.535,0.203
		l-18.509,19.858c0,0-6.848-8.95-9.086-9.493c0,0,9.017-9.289,13.288-11.323c0,0,5.154-3.728,5.425-5.016
		c0.271-1.287,1.763-1.967,1.763-1.967s-1.153-4.339-0.679-5.425c0.26-0.664,0.311-1.391,0.144-2.085
		c-0.126-0.407-0.37-0.649-0.751-0.435c-0.073,0.041-0.142,0.091-0.203,0.148l-11.728-1.763v-6.027c0,0-2.848-3.321-2.441-7.389
		s-0.476-3.932-0.476-3.932s0.043-6.871,0.622-7.444c0.58-0.574,6.149-3.201,6.149-3.201l17.46,3.102l0.72,3.34
		c0,0,0.61,2.656,1.627,3.836c1.017,1.18,0,2.602,0,2.602s0.34,3.051,1.357,5.766S734.823,893.409,734.279,895.51z"/>
	<path opacity="0.1" enable-background="new    " d="M730.755,819.577c-0.486,1.092-0.712,2.394-0.789,3.686
		c-2.529,2.191-6.328,2.024-8.657-0.378c0.157-1.477,0.226-2.63,0.226-2.63S732.382,815.916,730.755,819.577z"/>
	<path fill="#A1616A" d="M732.142,818.302c-0.002,3.482-2.827,6.304-6.309,6.302c-3.482-0.002-6.304-2.827-6.302-6.309
		s2.827-6.304,6.309-6.302c2.913,0.002,5.445,1.998,6.127,4.83C732.083,817.307,732.142,817.804,732.142,818.302z"/>
	<path opacity="0.1" enable-background="new    " d="M727.026,829.271c0,0-4.532-2.101-4.814-2.374
		c-0.283-0.273-9.684,23.867-9.684,23.867l-2.644,12.001c0,0,14.102,6.033,17.153,5.219c3.051-0.814,3.321,0,3.321,0
		s3.12-17.492,4.137-19.05s-0.95-17.425-0.95-17.425l-3.525-4.613L727.026,829.271z"/>
	<path opacity="0.1" enable-background="new    " d="M727.026,828.458c0,0-4.532-2.101-4.814-2.374
		c-0.283-0.273-9.684,23.867-9.684,23.867l-2.644,12.001c0,0,14.102,6.033,17.153,5.219c3.051-0.814,3.321,0,3.321,0
		s3.12-17.492,4.137-19.05s-0.95-17.425-0.95-17.425l-3.525-4.613L727.026,828.458z"/>
	<path fill="#FF0000" d="M734.483,848.527c-0.203,0.323-0.511,1.328-0.854,2.719c-0.24,0.968-0.5,2.121-0.767,3.362
		c-1.2,5.6-2.514,12.971-2.514,12.971s-0.083-0.248-0.671-0.334c-0.476-0.069-1.285-0.031-2.644,0.334
		c-3.051,0.814-17.155-5.221-17.155-5.221l0.407-1.831l2.237-10.17c0,0,9.425-24.137,9.696-23.865
		c0.165,0.165,1.926,1.017,3.269,1.65c0.856,0.407,1.546,0.722,1.546,0.722l2.848-2.25l0.157-0.124l3.509,4.611
		C733.545,831.102,735.5,846.967,734.483,848.527z"/>
	<path opacity="0.1" enable-background="new    " d="M723.703,831.238c0.407,1.564-0.541,4.135-0.541,4.135s-3.254,8.002-4.204,11.7
		c-0.95,3.698-6.383,11.15-6.383,11.15s-0.797,0.799-1.914,1.912c-0.124,0.124-0.254,0.252-0.384,0.386l2.237-10.17
		c0,0,9.425-24.137,9.696-23.865c0.165,0.165,1.926,1.017,3.269,1.65C724.638,828.901,723.432,830.203,723.703,831.238z"/>
	<path fill="#464353" d="M723.296,831.238c0.407,1.564-0.541,4.135-0.541,4.135s-3.254,8.002-4.204,11.7
		c-0.95,3.698-6.383,11.15-6.383,11.15s-0.797,0.799-1.914,1.912c-0.132,0.132-0.271,0.268-0.407,0.407
		c-2.18,2.17-5.246,5.213-6.204,6.102c-0.14,0.132-0.236,0.218-0.277,0.246c-0.087,0.058-0.183,0.1-0.285,0.124
		c-0.626,0.171-1.861,0.047-3.58-0.124c-2.034-0.203-0.338-4.406-0.338-4.406l0.535-0.551l0.488-0.504l5.541-5.701l0.407-0.429
		l1.694-1.747l0.862-9.072l0.02-0.218c0,0-0.252-0.576-0.641-1.454c-1.035-2.378-3.069-6.966-3.814-8.449
		c-0.085-0.173-0.153-0.301-0.203-0.38c0-0.01-0.01-0.02-0.016-0.028c-0.543-0.881,0.948-0.814,0.948-0.814s1.493-0.407,1.22-1.017
		c-0.273-0.61,1.763-1.017,1.696-1.898c-0.067-0.881,1.22-1.017,1.22-1.017s1.831,0.61,1.627,0c-0.203-0.61,2.848-0.95,2.848-0.95
		s1.491,0.746,2.305,0s4.151-0.744,4.151-0.744s-0.681-2.577,0-3.324c0.681-0.746,5.791,3.324,5.791,3.324
		S722.889,829.676,723.296,831.238z"/>
	<path opacity="0.1" enable-background="new    " d="M706.347,865.95c0,0,5.628,7.933,9.56,5.357
		c3.932-2.575-5.288-9.289-5.288-9.289L706.347,865.95z"/>
	<path fill="#A1616A" d="M706.347,865.543c0,0,5.628,7.933,9.56,5.357c3.932-2.575-5.288-9.289-5.288-9.289L706.347,865.543z"/>
	<path opacity="0.1" enable-background="new    " d="M733.35,869.91c0.429-3.745,1.674-9.371,0.659-11.077
		c-0.502-0.846-0.875-2.459-1.147-4.225c-0.146-0.95-0.262-1.944-0.356-2.888c-0.248-2.504-0.327-4.648-0.327-4.648
		s-2.441-10.886-1.967-13.123c0.297-1.399-0.045-4.906-0.342-7.335l0.157-0.124l3.509,4.611c0,0,1.965,15.865,0.948,17.425
		c-0.203,0.323-0.511,1.328-0.854,2.719l1.94-0.814l-0.407,4.001l1.22,14.984L733.35,869.91z"/>
	<path fill="#464353" d="M729.935,824.095c0,0,3.507,2.939,4.841,3.006c0,0-0.36,1.627-1.851,2.307c0,0,3.661,0.484,5.018,0.275
		c1.357-0.209,3.728,0.132,4.202,0.814c0.474,0.681,1.503,1.556,2.317,1.69c0.814,0.134,1.698,0.95,1.698,0.95l-5.97,8.813
		c0,0-2.17,5.425-1.696,6.645c0.474,1.22-0.069,8.069-0.441,8.406s0.645,13.967,2.475,13.967c0,0-5.016,3.391-6.509,2.374
		c-1.493-1.017,1.9-12,0.407-14.51c-1.493-2.51-1.831-11.761-1.831-11.761s-2.441-10.884-1.965-13.121
		C731.106,831.712,729.935,824.095,729.935,824.095z"/>
	<path opacity="0.1" enable-background="new    " d="M770.584,845.71c-1.812-0.565-4.589-0.582-5.101,4.271
		c-0.759-1.794-1.235-3.321-1.235-3.321l5.565-2.355C769.813,844.304,770.155,844.849,770.584,845.71z"/>
	<path fill="#464353" d="M742.834,832.729l3.326,0.407c0,0,1.017,1.357,1.963,1.357c0.946,0,1.694,1.22,1.694,1.22
		s1.357,0.744,2.237,0.541c0.881-0.203,4.542-0.539,5.085,0.037c0.543,0.576,4.068,1.117,4.068,1.117s1.357,2.101,2.577,2.101
		s8,4.951,8.203,6.712c0,0-6.712-4.271-6.779,5.12c0,0-2.848-2.542-3.323-3.627c-0.476-1.084-4.882-0.643-4.882-0.643
		s-2.982-1.324-3.458-2.205c-0.476-0.881-3.254,1.403-4.135,0.734c-0.881-0.669-8.882-4.151-8.882-4.151l-2.475-4.652
		L742.834,832.729z"/>
	<circle fill="#3F3D56" cx="727.5" cy="840.391" r="0.576"/>
	<circle fill="#3F3D56" cx="726.925" cy="852.41" r="0.576"/>
	<circle fill="#3F3D56" cx="727.5" cy="846.084" r="0.576"/>
	<circle fill="#3F3D56" cx="725.838" cy="858.735" r="0.576"/>
	<path opacity="0.1" enable-background="new    " d="M707.646,934.63c-0.283,0.791-1.163,0.5-1.163,0.5
		c-2.77-0.305-4.448-7.778-3.736-8.634s-0.443-2.833-0.443-2.833l-1.499,0.584l-1.373-4.219l0.866-1.068
		c0.862,1.495,2.097,3.645,2.388,4.194c0.552,1.139,0.814,2.397,0.763,3.661C703.401,928.137,704.935,934.459,707.646,934.63z"/>
	<path opacity="0.1" enable-background="new    " d="M731.967,816.815c-0.138-0.047-0.277-0.102-0.407-0.157
		c-0.466-0.189-0.956-0.407-1.239-0.814c-0.258-0.378-0.342-0.911-0.744-1.127c-0.464-0.248-1.017,0.087-1.519,0.203
		c-0.598,0.14-1.22-0.026-1.802-0.24c-0.866-0.319-2.077-0.907-2.966-0.299c-0.692,0.472-0.423,1.473-0.6,2.187
		c-0.275,1.109-1.452,1.831-1.674,2.951c-0.1,0.494-0.035,1.098-0.435,1.405c-0.117,0.083-0.25,0.142-0.391,0.171
		c-1.542-3.122-0.261-6.904,2.862-8.446c3.122-1.542,6.904-0.261,8.445,2.862c0.207,0.419,0.366,0.859,0.476,1.313L731.967,816.815z
		"/>
	<path fill="#464353" d="M726.251,814.268c0.576,0.214,1.202,0.38,1.802,0.238c0.511-0.12,1.054-0.456,1.517-0.203
		c0.407,0.218,0.488,0.748,0.744,1.127c0.283,0.407,0.773,0.635,1.241,0.814c0.349,0.163,0.722,0.267,1.104,0.309
		c0.388,0.038,0.772-0.107,1.037-0.393c0.362-0.437,0.252-1.092,0.037-1.615c-0.216-0.523-0.521-1.043-0.498-1.609
		c0.026-0.671,0.513-1.255,0.553-1.924c0.053-0.848-0.633-1.589-1.41-1.932c-0.696-0.307-1.491-0.393-2.128-0.814
		c-0.726-0.476-1.125-1.302-1.662-1.985c-0.781-0.995-2.003-1.737-3.254-1.595c-0.771,0.087-1.471,0.49-2.237,0.647
		c-1.166,0.242-2.398-0.11-3.557,0.161c-0.28,0.044-0.536,0.184-0.724,0.397c-0.285,0.382-0.138,0.917-0.012,1.377
		c0.226,0.828,0.321,1.766-0.128,2.494c-0.508,0.824-1.589,1.172-2.058,2.018c-0.276,0.504-0.293,1.109-0.047,1.627
		c0.224,0.468,0.657,0.848,0.724,1.363c0.047,0.37-0.106,0.73-0.185,1.092c-0.079,0.362-0.057,0.814,0.242,1.017
		c0.299,0.203,0.718,0.153,0.948,0.407c0.141,0.205,0.181,0.462,0.108,0.7c-0.081,0.407-0.254,0.775-0.346,1.174
		c-0.119,0.396-0.062,0.823,0.157,1.174c0.395,0.533,1.192,0.5,1.831,0.358c0.184-0.029,0.36-0.099,0.515-0.203
		c0.407-0.307,0.336-0.911,0.435-1.405c0.222-1.119,1.399-1.845,1.674-2.951c0.177-0.714-0.092-1.717,0.6-2.189
		C724.173,813.361,725.385,813.949,726.251,814.268z"/>
	<path opacity="0.1" enable-background="new    " d="M725.263,887.85c0,0,6.385,4.068,6.588,5.628L725.263,887.85z"/>
	<path opacity="0.1" enable-background="new    " d="M724.935,891.104c0,0,7.322,3.525,6.916,4.745L724.935,891.104z"/>
	<path opacity="0.1" enable-background="new    " d="M724.449,894.222c0,0,4.137,2.17,4.408,3.458L724.449,894.222z"/>
	<path opacity="0.1" enable-background="new    " d="M726.213,899.104c0,0,2.711,2.374,3.254,1.763
		C730.01,900.257,726.213,899.104,726.213,899.104z"/>
	<path opacity="0.1" enable-background="new    " d="M722.415,900.597c0,0,2.113,3.389,1.096,3.592
		C722.495,904.392,722.415,900.597,722.415,900.597z"/>
	<path opacity="0.1" enable-background="new    " d="M713.138,840.391c0,0-3.594,2.168-2.51,2.711
		C711.712,843.645,713.138,840.391,713.138,840.391z"/>
	<path opacity="0.1" enable-background="new    " d="M713.138,832.389c0,0-3.661,6.712-1.967,6.238
		C712.866,838.154,713.138,832.389,713.138,832.389z"/>
	<path opacity="0.1" enable-background="new    " d="M752.044,839.101c0,0-2.237,2.632-1.831,4.068L752.044,839.101z"/>
	<path opacity="0.1" enable-background="new    " d="M757.886,840.391c0,0-3.358,2.982-2.866,3.322L757.886,840.391z"/>
	<path opacity="0.1" enable-background="new    " d="M759.977,844.054c0,0-0.34,1.961,0.203,2.034L759.977,844.054z"/>
	<path opacity="0.05" enable-background="new    " d="M723.331,885.423c-0.864,1.119-0.864,3.102-1.255,3.915
		c-0.214,0.448-0.69,1.22-1.076,1.847c-0.126-0.407-0.37-0.649-0.751-0.435c-0.25-1.865-0.692-5.085-0.834-5.734
		c-0.203-0.915,2.034-3.356,2.034-3.356s2.187,0.458,2.746,1.576C724.754,884.356,724.195,884.307,723.331,885.423z"/>
	<path opacity="0.1" enable-background="new    " d="M712.042,861.884c-2.441,0.338-6.983,6.846-6.983,6.846
		s-0.596-0.867-1.424-2.077c-1.041-1.536-2.441-3.629-3.458-5.215l5.96-6.147l1.084,1.168c0,0,2.103,2.101,2.103,2.508
		c0,0.159,0.407,0.641,0.923,1.168C711.039,860.955,712.042,861.884,712.042,861.884z"/>
	<path opacity="0.1" enable-background="new    " d="M704.258,834.358c-0.085-0.173-0.153-0.301-0.203-0.38l2.628,0.175l1.393,8.648
		C707.036,840.43,705.002,835.841,704.258,834.358z"/>
	<path opacity="0.1" enable-background="new    " d="M709.843,860.548c-2.18,2.17-5.246,5.213-6.204,6.102
		c-0.14,0.132-0.236,0.218-0.277,0.246c-0.087,0.058-0.183,0.1-0.285,0.124c-0.958-1.408-2.325-3.435-3.383-5.085l0.488-0.504
		l5.545-5.703l0.685,0.738c0,0,2.103,2.101,2.103,2.508C708.517,859.169,709.174,859.877,709.843,860.548z"/>
	<path fill="#464353" d="M707.093,834.153l-3.051-0.203c0,0-0.814,1.898-1.491,2.034c-0.677,0.136-1.56,1.694-1.56,1.694
		s-2.612,0.476-2.498,1.29s-4.015,6.633-4.015,6.633s-1.357,2.791-0.407,4.825c0.95,2.034,1.627,3.391,1.831,4.135
		c0.203,0.744,2.612,4.001,2.591,4.611c-0.02,0.61,6.155,9.56,6.155,9.56s4.542-6.509,6.983-6.848c0,0-2.711-2.508-2.711-2.915
		c0-0.407-2.087-2.508-2.087-2.508l-2.644-2.848c0,0-0.883-0.407,0-1.153s-1.491-2.441-1.491-2.441s-0.069-1.22,0.814-1.56
		c0.883-0.34,2.034-2.575,2.034-2.575l3.187-1.627L707.093,834.153z"/>
	<path opacity="0.1" enable-background="new    " d="M695.443,847.644c0,0,3.661-0.744,3.728-0.271
		C699.238,847.848,695.443,847.644,695.443,847.644z"/>
	<path opacity="0.1" enable-background="new    " d="M698.493,851.34c0,0,3.104,0.407,2.968,1.07S698.493,851.34,698.493,851.34z"/>
	<path opacity="0.1" enable-background="new    " d="M701.058,839.813c0,0,2.984,4.225,3.391,3.35L701.058,839.813z"/>
	<g opacity="0.1">
		<path d="M718.988,808.335c0.018-0.493-0.044-0.985-0.183-1.458c-0.059-0.2-0.104-0.404-0.134-0.61
			c-0.026,0.345,0.02,0.691,0.134,1.017C718.901,807.627,718.963,807.979,718.988,808.335z"/>
		<path d="M733.252,812.81c0.079-0.61,0.498-1.165,0.537-1.79c0.006-0.104,0.002-0.208-0.012-0.311
			c-0.079,0.63-0.517,1.19-0.541,1.831C733.233,812.63,733.239,812.721,733.252,812.81z"/>
		<path d="M733.698,815.759c-0.266,0.285-0.649,0.431-1.037,0.393c-0.383-0.042-0.756-0.146-1.104-0.309
			c-0.468-0.189-0.958-0.407-1.241-0.814c-0.258-0.378-0.342-0.909-0.744-1.127c-0.464-0.248-1.017,0.087-1.519,0.203
			c-0.598,0.142-1.22-0.024-1.8-0.238c-0.866-0.319-2.079-0.907-2.968-0.301c-0.692,0.472-0.423,1.475-0.6,2.189
			c-0.275,1.106-1.452,1.831-1.674,2.951c-0.1,0.494-0.035,1.098-0.435,1.405c-0.155,0.105-0.332,0.174-0.517,0.203
			c-0.647,0.142-1.444,0.175-1.831-0.358c-0.112-0.152-0.182-0.331-0.203-0.519c-0.053,0.323,0.02,0.654,0.203,0.925
			c0.395,0.533,1.192,0.5,1.831,0.358c0.185-0.029,0.361-0.098,0.517-0.203c0.407-0.307,0.336-0.911,0.435-1.405
			c0.222-1.119,1.399-1.845,1.674-2.951c0.177-0.714-0.091-1.717,0.6-2.189c0.889-0.61,2.101-0.018,2.968,0.301
			c0.576,0.214,1.202,0.38,1.8,0.238c0.513-0.12,1.056-0.456,1.519-0.203c0.407,0.218,0.486,0.748,0.744,1.127
			c0.283,0.407,0.773,0.635,1.241,0.814c0.349,0.163,0.722,0.267,1.104,0.309c0.388,0.038,0.772-0.107,1.037-0.393
			c0.2-0.267,0.279-0.605,0.22-0.934C733.896,815.426,733.82,815.608,733.698,815.759z"/>
		<path d="M717.296,814.37c-0.067-0.515-0.5-0.895-0.724-1.363c-0.084-0.176-0.138-0.365-0.159-0.559
			c-0.039,0.331,0.016,0.665,0.159,0.966c0.218,0.454,0.629,0.828,0.714,1.318C717.306,814.613,717.31,814.491,717.296,814.37z"/>
		<path d="M718.427,817.547c0.059-0.221,0.016-0.458-0.116-0.645c-0.23-0.262-0.667-0.203-0.948-0.407
			c-0.15-0.119-0.246-0.293-0.266-0.484c-0.045,0.331,0,0.698,0.266,0.891c0.266,0.193,0.718,0.153,0.948,0.407
			C718.368,817.378,718.408,817.46,718.427,817.547z"/>
	</g>
	<path fill="#FF0000" d="M670.144,922.892c0,0-8.413-0.508-7.422,5.388c0,0-0.203,1.041,0.749,1.515c0,0,0.014-0.437,0.862-0.289
		c0.302,0.05,0.608,0.065,0.913,0.043c0.413-0.028,0.805-0.189,1.119-0.46l0,0c0,0,2.366-0.978,3.285-4.843
		c0,0,0.679-0.844,0.653-1.06l-1.424,0.61c0,0,0.486,1.017,0.104,1.875c0,0-0.047-1.831-0.319-1.796
		c-0.055,0.01-0.738,0.356-0.738,0.356s0.836,1.784,0.203,3.082c0,0,0.24-2.199-0.466-2.953l-0.999,0.584
		c0,0,0.976,1.843,0.313,3.348c0,0,0.171-2.307-0.523-3.206l-0.907,0.706c0,0,0.917,1.816,0.358,3.065c0,0-0.073-2.687-0.553-2.888
		c0,0-0.793,0.698-0.913,0.984c0,0,0.627,1.32,0.238,2.016c0,0-0.238-1.79-0.435-1.798c0,0-0.789,1.186-0.871,1.997
		c0,0,0.035-1.208,0.679-2.111c-0.455,0.087-0.875,0.305-1.208,0.627c0,0,0.122-0.838,1.404-0.911c0,0,0.653-0.899,0.828-0.954
		c0,0-1.275-0.106-2.046,0.236c0,0,0.679-0.789,2.278-0.431l0.895-0.73c0,0-1.676-0.228-2.388,0.024c0,0,0.814-0.7,2.63-0.189
		l0.972-0.582c0,0-1.424-0.309-2.282-0.203c0,0,0.899-0.484,2.567,0.041l0.698-0.313c0,0-1.048-0.203-1.355-0.238
		c-0.307-0.035-0.323-0.118-0.323-0.118c0.663-0.11,1.344-0.034,1.967,0.22C668.685,923.534,670.17,922.983,670.144,922.892z"/>
	<ellipse opacity="0.1" fill="#FF0000" enable-background="new    " cx="664.349" cy="930.31" rx="5.956" ry="1.007"/>
</g>
</svg>
