<?xml version="1.0" encoding="utf-8"?>
<!-- Generator: Adobe Illustrator 17.0.0, SVG Export Plug-In . SVG Version: 6.00 Build 0)  -->
<!DOCTYPE svg PUBLIC "-//W3C//DTD SVG 1.1//EN" "http://www.w3.org/Graphics/SVG/1.1/DTD/svg11.dtd">
<svg version="1.1" id="a8da25f4-889f-4ee6-ae6a-a6a994838cbb"
	 xmlns="http://www.w3.org/2000/svg" xmlns:xlink="http://www.w3.org/1999/xlink" x="0px" y="0px" width="234px" height="146px"
	 viewBox="350.005 993.483 234 146" enable-background="new 350.005 993.483 234 146" xml:space="preserve">
<g>
	<path fill="#3F3D56" d="M558.377,1053.688c-14.154,0-25.627-11.474-25.627-25.627c0-14.154,11.474-25.627,25.627-25.627
		s25.627,11.474,25.627,25.627C583.989,1042.208,572.524,1053.672,558.377,1053.688z M558.377,1002.834
		c-13.932,0-25.227,11.294-25.227,25.227c0,13.932,11.294,25.227,25.227,25.227c13.932,0,25.227-11.295,25.227-25.227
		C583.588,1014.135,572.303,1002.85,558.377,1002.834z"/>
	<circle fill="#F2F2F2" cx="558.463" cy="1028.135" r="12.868"/>
	<rect x="362.867" y="1028.164" fill="#3F3D56" width="196.445" height="98.69"/>
	<rect x="418.059" y="1056.696" opacity="0.1" enable-background="new    " width="73.667" height="50.514"/>
	<circle fill="#FF0000" cx="576.076" cy="1010.047" r="5.189"/>
	<circle fill="#FF0000" cx="368.714" cy="1031.906" r="2.339"/>
	<circle fill="#FF0000" cx="375.963" cy="1031.906" r="2.339"/>
	<circle fill="#FF0000" cx="383.213" cy="1031.906" r="2.339"/>
	<rect x="385.552" y="1064.881" fill="#FF0000" width="4.677" height="4.677"/>
	<rect x="527.975" y="1105.573" fill="#FFFFFF" width="4.677" height="4.677"/>
	
		<rect x="513.475" y="1074.002" transform="matrix(-0.7774 0.629 -0.629 -0.7774 1593.8323 1588.637)" fill="#FF0000" width="4.677" height="4.677"/>
	<polygon fill="#3F3D56" points="499.677,1136.677 352.811,1136.677 352.811,1057.631 353.279,1057.631 353.279,1136.209 
		499.677,1136.209 	"/>
	<path fill="#3F3D56" d="M502.483,1139.483c-1.679,0-3.04-1.361-3.04-3.04s1.361-3.04,3.04-3.04c1.679,0,3.04,1.361,3.04,3.04l0,0
		C505.522,1138.121,504.162,1139.481,502.483,1139.483z M502.483,1133.871c-1.421,0-2.573,1.152-2.573,2.573
		s1.152,2.573,2.573,2.573s2.572-1.152,2.572-2.573C505.054,1135.023,503.904,1133.872,502.483,1133.871L502.483,1133.871z"/>
	<path fill="#3F3D56" d="M353.045,1057.865c-1.679,0-3.04-1.361-3.04-3.04s1.361-3.04,3.04-3.04s3.04,1.361,3.04,3.04l0,0
		C356.083,1056.503,354.723,1057.863,353.045,1057.865z M353.045,1052.252c-1.421,0-2.573,1.152-2.573,2.573
		s1.152,2.573,2.573,2.573s2.573-1.152,2.573-2.573l0,0C355.616,1053.405,354.465,1052.254,353.045,1052.252z"/>
	<path fill="#F2F2F2" d="M397.011,1121.008l-2.088,5.847h-4.694v-5.964c0.346-7.481,4.544-10.999,4.675-11.106
		c-3.155,3.043-2.804,13.562-2.804,13.562c2.105-9.121,3.976-9.355,3.976-9.355c-1.132,1.7-1.717,9.434-1.752,9.916
		C394.464,1122.283,397.011,1121.008,397.011,1121.008z"/>
	<path fill="#F2F2F2" d="M542.24,1121.803v5.052h-3.609l-1.77-4.96c0,0,2.018,1.01,2.13,2.299c-0.028-0.398-0.491-6.515-1.389-7.863
		c0,0,1.485,0.185,3.155,7.418c0,0,0.276-8.342-2.224-10.755C538.639,1113.08,541.967,1115.868,542.24,1121.803z"/>
	<path fill="#FFFFFF" d="M418.058,1052.953v54.256h86.062v-54.256H418.058z M503.654,1106.743h-85.127v-53.321h85.127V1106.743z"/>
	<g>
		<path fill="#2F2E41" d="M482.512,1045.569c-2.015,5.965-5.104,11.401-11.4,11.401s-11.046-5.114-11.4-11.401
			c-0.453-8.033,4.959-11.434,11.4-11.4C478.722,1034.208,484.903,1038.49,482.512,1045.569z"/>
		<rect x="461.706" y="1044.053" fill="#2F2E41" width="18.647" height="27.176"/>
		<path fill="#FFB8B8" d="M468.248,1059.656c0,0,0.596,8.549-0.795,9.941c-1.392,1.392,12.326,2.585,12.128,0.994
			c-0.199-1.591-2.783-11.929-1.988-14.116C478.388,1054.288,468.248,1059.656,468.248,1059.656z"/>
		<path opacity="0.1" enable-background="new    " d="M468.248,1059.656c0,0,0.596,8.549-0.795,9.941
			c-1.392,1.392,12.326,2.585,12.128,0.994c-0.199-1.591-2.783-11.929-1.988-14.116
			C478.388,1054.288,468.248,1059.656,468.248,1059.656z"/>
		<path fill="#FF0000" d="M455.128,1081.527l-7.144,24.156l-0.286,0.973h-12.021c4.783-14.806,16.608-36.639,16.608-36.639
			l1.846-0.418L455.128,1081.527z"/>
		<path opacity="0.1" enable-background="new    " d="M455.128,1081.527l-7.144,24.156l-0.286,0.973h-12.021
			c4.783-14.806,16.608-36.639,16.608-36.639l1.846-0.418L455.128,1081.527z"/>
		<circle fill="#FFB8B8" cx="470.634" cy="1053.692" r="8.947"/>
		<path fill="#3F3D56" d="M480.177,1068.006c0,0-3.181,2.982-6.76,2.386c-3.579-0.596-5.081-4.948-5.081-4.948l-3.468,2.563
			c0,0-0.994,7.157,3.579,7.953c4.573,0.795,11.134,0.994,12.525,0C482.364,1074.965,480.177,1068.006,480.177,1068.006z"/>
		<path fill="#FF0000" d="M491.113,1078.542l-0.571,1.854l-8.055,26.26h-34.665c0.074-0.321,0.128-0.646,0.162-0.973
			c0.448-3.738,0.184-13.168,0.184-13.817c0-0.797,3.378-20.478,4.176-21.871c0.124-0.169,0.287-0.305,0.474-0.396
			c0.927-0.533,2.977-1.129,5.188-1.656c0.002-0.002,0.002-0.002,0.004-0.002c1.235-0.3,2.525-0.577,3.694-0.811h0.002
			c1.147-0.23,2.176-0.418,2.929-0.543c0.406-0.078,0.816-0.135,1.227-0.17c0.184,0,0.318,0.218,0.408,0.553
			c0.302,1.089,0.186,3.422,0.186,3.422c0.269,0.308,0.568,0.589,0.893,0.837c0.764,0.601,1.603,1.101,2.495,1.488
			c0.765,0.335,1.556,0.605,2.367,0.807h0.002c0.852,0.216,1.718,0.366,2.593,0.45c0.713,0.082,1.433,0.068,2.142-0.042h0.004
			c2.108-0.348,2.881-1.658,3.241-2.703c0.064-0.19,0.114-0.372,0.158-0.539c0-0.002,0.002-0.006,0.002-0.008
			c0.132-0.51,0.188-0.869,0.328-0.863h0.002c0.362,0.034,4.933,3.952,7.902,6.525c1.409,1.219,2.457,2.14,2.521,2.196
			L491.113,1078.542z"/>
		<path opacity="0.1" enable-background="new    " d="M490.542,1080.396l-8.055,26.26h-3.265c0.294-0.43,0.421-0.953,0.358-1.47
			c-0.104-0.733,2.164-8.199,4.349-15.146c1.986-6.313,3.902-12.191,3.902-12.191l1.888,0.893
			C489.719,1078.742,490.057,1079.38,490.542,1080.396z"/>
		<path fill="#FF0000" d="M496.282,1104.189c-0.392,0.098-0.35,1.263-0.372,2.467h-15.428c0.379-0.469,0.556-1.07,0.493-1.67
			c-0.102-0.703,1.42-7.948,2.955-14.946c1.207-5.534,2.425-10.914,2.847-12.786c0.104-0.452,0.16-0.697,0.16-0.697l0.182,0.086
			l0.004,0.002l3.986,1.894l0.004,0.002c0,0,6.163,11.733,4.176,14.516c-1.99,2.783-1.99,2.783-1.195,4.176
			C494.889,1098.623,497.075,1103.991,496.282,1104.189z"/>
		<circle fill="#2F2E41" cx="471.112" cy="1032.069" r="4.5"/>
		<path fill="#2F2E41" d="M465.712,1029.669c0-2.311,1.751-4.246,4.05-4.477c-0.148-0.015-0.298-0.023-0.45-0.023
			c-2.485,0-4.5,2.015-4.5,4.5c0,2.485,2.015,4.5,4.5,4.5c0.152,0,0.302-0.008,0.45-0.023
			C467.462,1033.915,465.712,1031.98,465.712,1029.669z"/>
		<path fill="#2F2E41" d="M467.802,1042.42c0,0-0.094-0.523-3.769,0.855c-3.675,1.378-5.878,11.548-4.04,17.52
			c0.741,2.407,0.138,4.142-0.845,5.356c-3.69,4.556-2.237,11.399,3.137,13.742c0.152,0.066,0.306,0.131,0.464,0.196l2.297,1.378
			c0,0-2.928-3.853-1.463-8.781c1.273-4.199,1.43-8.657,0.456-12.936c-0.168-0.722-0.359-1.466-0.576-2.225
			c-1.838-6.431-0.944-5.689,5.488-12.12c0,0,3.675,2.756,6.891,4.135c3.216,1.378,5.972,2.756,3.675,7.35s-7.81,8.728-4.134,14.7
			c3.675,5.972,4.134,3.675,3.675,5.972l0,0l-0.459,2.297l2.756-2.756l-1.838,3.675c0,0,5.972,0,7.81-4.594l0.919,0.919
			c0,0,3.675-6.431-3.216-12.403c0,0-2.297-1.378,0.919-5.972c3.216-4.594,0.746-14.471-3.388-16.308
			C478.424,1040.582,467.802,1042.42,467.802,1042.42z"/>
		<polygon fill="#3F3D56" points="470.634,1071.35 462.98,1084.607 464.769,1084.607 464.769,1086.397 473.468,1071.35 		"/>
	</g>
	<path fill="#F2F2F2" d="M461.089,1066.427c-7.541,0-13.655,6.113-13.655,13.655c0,7.541,6.113,13.655,13.655,13.655
		c7.541,0,13.655-6.113,13.655-13.655l0,0C474.74,1072.542,468.629,1066.43,461.089,1066.427z M458.358,1086.226v-12.289
		l8.193,6.145L458.358,1086.226z"/>
</g>
</svg>
