<?xml version="1.0" encoding="utf-8"?>
<!-- Generator: Adobe Illustrator 17.0.0, SVG Export Plug-In . SVG Version: 6.00 Build 0)  -->
<!DOCTYPE svg PUBLIC "-//W3C//DTD SVG 1.1//EN" "http://www.w3.org/Graphics/SVG/1.1/DTD/svg11.dtd">
<svg version="1.1" id="a8da25f4-889f-4ee6-ae6a-a6a994838cbb"
	 xmlns="http://www.w3.org/2000/svg" xmlns:xlink="http://www.w3.org/1999/xlink" x="0px" y="0px" width="234px" height="146px"
	 viewBox="1209.323 595.483 234 146" enable-background="new 1209.323 595.483 234 146" xml:space="preserve">
<g>
	<rect x="1229.6" y="650.264" fill="#2F2E41" width="201.452" height="0.416"/>
	<path fill="#FF0000" d="M1400.579,730.182c-2.873,3.769,0.42,11.11,0.42,11.11s7.951,1.229,10.823-2.54
		c2.873-3.769-0.42-11.11-0.42-11.11S1403.452,726.413,1400.579,730.182z"/>
	<path fill="#2F2E41" d="M1250.077,646.21c-8.726,0-15.8-7.074-15.8-15.8s7.074-15.8,15.8-15.8s15.8,7.074,15.8,15.8
		C1265.868,639.132,1258.799,646.2,1250.077,646.21z M1250.077,615.026c-8.497,0-15.384,6.888-15.384,15.384
		s6.888,15.384,15.384,15.384s15.384-6.888,15.384-15.384C1265.452,621.917,1258.57,615.035,1250.077,615.026L1250.077,615.026z"/>
	<path fill="#2F2E41" d="M1250.077,611.387c-5.388,0-9.771-3.567-9.771-7.952c0-4.385,4.383-7.952,9.771-7.952
		s9.771,3.567,9.771,7.952C1259.849,607.82,1255.465,611.387,1250.077,611.387z M1250.077,595.822c-5.159,0-9.355,3.415-9.355,7.614
		s4.197,7.614,9.355,7.614c5.159,0,9.355-3.416,9.355-7.614S1255.236,595.822,1250.077,595.822z"/>
	<path fill="#2F2E41" d="M1245.504,607.749c-1.166,0-2.079-1.735-2.079-3.95c0-2.215,0.913-3.95,2.079-3.95s2.079,1.735,2.079,3.95
		C1247.583,606.014,1246.669,607.749,1245.504,607.749z M1245.504,600.265c-0.902,0-1.663,1.619-1.663,3.534
		c0,1.916,0.762,3.534,1.663,3.534s1.663-1.618,1.663-3.534C1247.167,601.883,1246.405,600.265,1245.504,600.265z"/>
	<path fill="#2F2E41" d="M1254.651,607.749c-1.166,0-2.079-1.735-2.079-3.95c0-2.215,0.913-3.95,2.079-3.95s2.079,1.735,2.079,3.95
		C1256.73,606.014,1255.817,607.749,1254.651,607.749z M1254.651,600.265c-0.902,0-1.663,1.619-1.663,3.534
		c0,1.916,0.762,3.534,1.663,3.534s1.663-1.618,1.663-3.534C1256.314,601.883,1255.553,600.265,1254.651,600.265z"/>
	<path fill="#2F2E41" d="M1270.451,626.46c-4.593,0-8.316-3.723-8.316-8.316c0-4.593,3.723-8.316,8.316-8.316
		c4.593,0,8.316,3.723,8.316,8.316C1278.762,622.735,1275.042,626.455,1270.451,626.46z M1270.451,610.244
		c-4.363,0-7.9,3.537-7.9,7.9c0,4.363,3.537,7.9,7.9,7.9c4.363,0,7.9-3.537,7.9-7.9l0,0
		C1278.346,613.783,1274.812,610.249,1270.451,610.244z"/>
	<path fill="#2F2E41" d="M1229.911,626.46c-4.593,0-8.316-3.723-8.316-8.316c0-4.593,3.723-8.316,8.316-8.316
		c4.593,0,8.316,3.723,8.316,8.316C1238.222,622.735,1234.502,626.455,1229.911,626.46z M1229.911,610.244
		c-4.363,0-7.9,3.537-7.9,7.9c0,4.363,3.537,7.9,7.9,7.9c4.363,0,7.9-3.537,7.9-7.9l0,0
		C1237.807,613.783,1234.272,610.249,1229.911,610.244z"/>
	<path fill="#2F2E41" d="M1250.077,650.368c-2.973,0-5.301-1.004-5.301-2.287s2.329-2.287,5.301-2.287s5.301,1.004,5.301,2.287
		S1253.05,650.368,1250.077,650.368z M1250.077,646.21c-2.922,0-4.886,0.967-4.886,1.871s1.963,1.871,4.886,1.871
		s4.886-0.968,4.886-1.871S1253,646.21,1250.077,646.21z"/>
	<path fill="#2F2E41" d="M1320.554,646.21c-8.726,0-15.8-7.074-15.8-15.8s7.074-15.8,15.8-15.8c8.726,0,15.8,7.074,15.8,15.8
		C1336.345,639.132,1329.276,646.2,1320.554,646.21z M1320.554,615.026c-8.496,0-15.384,6.888-15.384,15.384
		s6.888,15.384,15.384,15.384c8.497,0,15.384-6.888,15.384-15.384C1335.929,621.917,1329.047,615.035,1320.554,615.026
		L1320.554,615.026z"/>
	<path fill="#2F2E41" d="M1320.554,615.026c-5.396,0-9.771-4.375-9.771-9.771c0-5.396,4.375-9.771,9.771-9.771
		c5.396,0,9.771,4.375,9.771,9.771C1330.319,610.648,1325.948,615.02,1320.554,615.026z M1320.554,595.899
		c-5.167,0-9.355,4.189-9.355,9.355c0,5.167,4.189,9.355,9.355,9.355c5.167,0,9.355-4.188,9.355-9.355l0,0
		C1329.904,600.09,1325.719,595.905,1320.554,595.899z"/>
	<path fill="#2F2E41" d="M1315.981,607.749c-1.166,0-2.079-1.735-2.079-3.95c0-2.215,0.913-3.95,2.079-3.95s2.079,1.735,2.079,3.95
		C1318.06,606.014,1317.146,607.749,1315.981,607.749z M1315.981,600.265c-0.902,0-1.663,1.619-1.663,3.534
		c0,1.916,0.761,3.534,1.663,3.534c0.902,0,1.663-1.618,1.663-3.534C1317.644,601.883,1316.882,600.265,1315.981,600.265z"/>
	<path fill="#2F2E41" d="M1325.128,607.749c-1.166,0-2.079-1.735-2.079-3.95c0-2.215,0.913-3.95,2.079-3.95s2.079,1.735,2.079,3.95
		C1327.207,606.014,1326.294,607.749,1325.128,607.749z M1325.128,600.265c-0.902,0-1.663,1.619-1.663,3.534
		c0,1.916,0.761,3.534,1.663,3.534s1.663-1.618,1.663-3.534C1326.791,601.883,1326.03,600.265,1325.128,600.265z"/>
	<path fill="#2F2E41" d="M1342.799,647.458c-4.593,0-8.316-3.723-8.316-8.316c0-4.593,3.723-8.316,8.316-8.316
		s8.316,3.723,8.316,8.316C1351.11,643.732,1347.39,647.452,1342.799,647.458z M1342.799,631.242c-4.363,0-7.9,3.537-7.9,7.9
		c0,4.363,3.537,7.9,7.9,7.9s7.9-3.537,7.9-7.9C1350.694,634.781,1347.16,631.247,1342.799,631.242z"/>
	<path fill="#2F2E41" d="M1296.802,637.686c-4.593,0.029-8.339-3.671-8.368-8.264c-0.029-4.593,3.671-8.339,8.264-8.368
		c4.593-0.029,8.339,3.671,8.368,8.264c0,0.017,0,0.035,0,0.052C1305.075,633.947,1301.378,637.667,1296.802,637.686z
		 M1296.802,621.47c-4.363-0.027-7.922,3.487-7.95,7.851s3.488,7.922,7.851,7.95s7.922-3.487,7.95-7.851c0-0.017,0-0.033,0-0.05
		C1304.661,625.023,1301.15,621.489,1296.802,621.47L1296.802,621.47z"/>
	<path fill="#2F2E41" d="M1320.554,650.368c-2.973,0-5.301-1.004-5.301-2.287s2.329-2.287,5.301-2.287
		c2.973,0,5.301,1.004,5.301,2.287S1323.527,650.368,1320.554,650.368z M1320.554,646.21c-2.922,0-4.885,0.967-4.885,1.871
		s1.963,1.871,4.885,1.871c2.922,0,4.886-0.968,4.886-1.871S1323.477,646.21,1320.554,646.21z"/>
	<path fill="#2F2E41" d="M1393.318,646.834c-8.726,0-15.8-7.074-15.8-15.8c0-8.726,7.074-15.8,15.8-15.8s15.8,7.074,15.8,15.8
		C1409.109,639.756,1402.04,646.824,1393.318,646.834z M1393.318,615.649c-8.497,0-15.384,6.888-15.384,15.384
		c0,8.497,6.888,15.384,15.384,15.384c8.496,0,15.384-6.888,15.384-15.384C1408.693,622.541,1401.811,615.659,1393.318,615.649
		L1393.318,615.649z"/>
	<path fill="#2F2E41" d="M1401.634,617.105c-5.396,0-9.771-4.375-9.771-9.771c0-5.396,4.375-9.771,9.771-9.771
		s9.771,4.375,9.771,9.771C1411.399,612.727,1407.028,617.099,1401.634,617.105z M1401.634,597.978
		c-5.167,0-9.355,4.189-9.355,9.355s4.189,9.355,9.355,9.355c5.167,0,9.355-4.189,9.355-9.355l0,0
		C1410.984,602.169,1406.798,597.984,1401.634,597.978z"/>
	<path fill="#2F2E41" d="M1397.06,613.57c-1.166,0-2.079-1.735-2.079-3.95c0-2.215,0.913-3.95,2.079-3.95s2.079,1.735,2.079,3.95
		C1399.139,611.835,1398.226,613.57,1397.06,613.57z M1397.06,606.086c-0.902,0-1.663,1.619-1.663,3.534
		c0,1.916,0.761,3.534,1.663,3.534s1.663-1.618,1.663-3.534C1398.724,607.705,1397.962,606.086,1397.06,606.086z"/>
	<path fill="#2F2E41" d="M1406.208,613.57c-1.166,0-2.079-1.735-2.079-3.95c0-2.215,0.913-3.95,2.079-3.95s2.079,1.735,2.079,3.95
		C1408.287,611.835,1407.374,613.57,1406.208,613.57z M1406.208,606.086c-0.902,0-1.663,1.619-1.663,3.534
		c0,1.916,0.762,3.534,1.663,3.534s1.663-1.618,1.663-3.534C1407.871,607.705,1407.109,606.086,1406.208,606.086z"/>
	<path fill="#2F2E41" d="M1415.563,648.081c-4.593,0-8.316-3.723-8.316-8.316s3.723-8.316,8.316-8.316
		c4.593,0,8.316,3.723,8.316,8.316C1423.874,644.356,1420.154,648.076,1415.563,648.081z M1415.563,631.865
		c-4.363,0-7.9,3.537-7.9,7.9s3.537,7.9,7.9,7.9c4.363,0,7.9-3.537,7.9-7.9l0,0C1423.458,635.404,1419.924,631.87,1415.563,631.865z
		"/>
	<path fill="#2F2E41" d="M1369.618,638.31c-4.593,0-8.316-3.723-8.316-8.316s3.723-8.316,8.316-8.316
		c4.593,0,8.316,3.723,8.316,8.316C1377.929,634.585,1374.208,638.305,1369.618,638.31z M1369.618,622.094
		c-4.363,0-7.9,3.537-7.9,7.9s3.537,7.9,7.9,7.9c4.363,0,7.9-3.537,7.9-7.9l0,0C1377.513,625.633,1373.979,622.099,1369.618,622.094
		L1369.618,622.094z"/>
	<path fill="#2F2E41" d="M1386.977,650.16c-2.973,0-5.301-1.004-5.301-2.287s2.329-2.287,5.301-2.287
		c2.973,0,5.301,1.004,5.301,2.287S1389.95,650.16,1386.977,650.16z M1386.977,646.002c-2.922,0-4.885,0.968-4.885,1.871
		s1.963,1.871,4.885,1.871c2.922,0,4.886-0.968,4.886-1.871S1389.9,646.002,1386.977,646.002z"/>
	<path fill="#FF0000" d="M1296.859,605.26c-6.505-6.894-20.819-4.196-20.963-4.168l-0.08-0.408
		c0.146-0.029,14.684-2.768,21.345,4.29L1296.859,605.26z"/>
	<path fill="#FF0000" d="M1298.517,607.126c-1.068-0.667-2.555-1.371-3.736-1.607l2.003-0.641l1.129-1.774
		C1297.84,604.307,1298.143,605.923,1298.517,607.126z"/>
	<path fill="#FF0000" d="M1362.139,616.487c-6.505-6.894-20.819-4.196-20.963-4.168l-0.08-0.408
		c0.146-0.028,14.684-2.768,21.345,4.29L1362.139,616.487z"/>
	<path fill="#FF0000" d="M1363.797,618.352c-1.068-0.667-2.555-1.371-3.736-1.607l2.003-0.641l1.129-1.774
		C1363.12,615.533,1363.422,617.15,1363.797,618.352z"/>
	<path fill="#9E616A" d="M1363.294,634.721c0,0-4.402,0-4.892,2.69c-0.489,2.69-1.223,32.04-0.734,35.709s0.489,2.935,0.489,2.935
		s-0.975,6.972,1.224,7.277c2.2,0.305,2.2-8.011,2.2-8.011l1.712-29.839V634.721z"/>
	<path fill="#9E616A" d="M1382.372,634.721c0,0,4.402,0,4.892,2.69c0.489,2.69,1.223,32.04,0.734,35.709
		c-0.489,3.669-0.489,2.935-0.489,2.935s0.975,6.972-1.224,7.277c-2.2,0.305-2.2-8.011-2.2-8.011l-1.712-29.839V634.721z"/>
	<path fill="#2F2E41" d="M1362.561,736.956h-1.957c-2.431,0-4.402,1.971-4.402,4.402c0,0,0,0,0,0l0,0h11.984v-5.625h-5.625V736.956z
		"/>
	<path fill="#2F2E41" d="M1381.393,736.956h1.957c2.431,0,4.402,1.971,4.402,4.402c0,0,0,0,0,0l0,0h-11.984v-5.625h5.625V736.956z"
		/>
	<circle fill="#9E616A" cx="1370.876" cy="622.737" r="6.359"/>
	<path fill="#9E616A" d="M1369.409,626.161c0,0-0.734,8.071-1.712,8.805c-0.978,0.734,10.272-0.489,10.272-0.489
		s-3.913-5.87-3.18-7.827S1369.409,626.161,1369.409,626.161z"/>
	<path fill="#2F2E41" d="M1383.839,634.721c0,0-13.452-5.625-22.257,0c0,0-2.201,5.625-0.489,8.805
		c1.712,3.18,4.402,10.761,1.712,15.898c-2.69,5.136,0.245,2.935,0.245,2.935s-3.424,13.696-3.913,24.458
		c-0.489,10.762,1.467,49.405,2.935,49.65c1.467,0.245,6.115,0.734,6.604,0c0.489-0.734,3.913-51.851,3.913-51.851
		s1.467,52.34,2.935,52.34c1.467,0,5.381,0,6.115-1.223s6.848-48.427,4.647-58.21c-2.201-9.783-3.669-14.675-3.669-14.675
		s2.69-1.712,1.957-2.69s-4.402-11.495-2.69-13.207C1383.595,645.238,1383.839,634.721,1383.839,634.721z"/>
	<circle fill="#2F2E41" cx="1374.912" cy="618.904" r="10.272"/>
	<path fill="#2F2E41" d="M1381.326,613.762c-3.596-0.845-5.894-4.365-5.221-7.997c-0.03,0.105-0.058,0.211-0.083,0.319
		c-0.871,3.721,1.44,7.444,5.161,8.315c3.716,0.87,7.435-1.434,8.312-5.149c0.025-0.108,0.047-0.215,0.067-0.323
		C1388.547,612.479,1384.922,614.607,1381.326,613.762z"/>
	<circle fill="#2F2E41" cx="1381.745" cy="610.073" r="5.027"/>
	<rect x="1321.906" y="740.907" fill="#2F2E41" width="90.227" height="0.416"/>
</g>
<polyline fill="none" stroke="#FF0000" stroke-width="0.5" stroke-miterlimit="10" points="1364.64,738.546 1364.517,708.633 
	1365.63,677.827 1372.91,677.827 1379.322,677.827 1379.322,705.21 1379.322,738.546 "/>
<path fill="none" stroke="#FF0000" stroke-width="0.5" stroke-miterlimit="10" d="M1372.803,638.31l0.108,39.517L1372.803,638.31z"
	/>
<path fill="none" stroke="#FF0000" stroke-width="0.5" stroke-miterlimit="10" d="M1385.184,639.765l-12.515-1.045L1385.184,639.765
	z"/>
<polyline fill="none" stroke="#FF0000" stroke-width="0.5" stroke-miterlimit="10" points="1385.265,670.339 1385.911,654.313 
	1385.184,639.243 "/>
<polyline fill="none" stroke="#FF0000" stroke-width="0.5" stroke-miterlimit="10" points="1359.06,672.763 1360.061,655.74 
	1359.833,639.038 1372.803,638.717 "/>
</svg>
